<svg id="Layer_1" data-name="Layer 1" xmlns="http://www.w3.org/2000/svg" viewBox="0 0 150 150"><defs><style>.cls-1{fill:#291d52;stroke:#75cbc3;stroke-miterlimit:10;stroke-width:2.47px;}.cls-2{fill:#75cbc3;}</style></defs><path class="cls-1" d="M9.39,19.29H98a42.58,42.58,0,0,1,42.58,42.58v27.2A42.58,42.58,0,0,1,98,131.65H52A42.58,42.58,0,0,1,9.39,89.07V19.29a0,0,0,0,1,0,0Z"/><path class="cls-2" d="M95.93,42.22c.26.11.52.21.77.33a3.54,3.54,0,0,1,2.15,3.33c0,2.15,0,4.31,0,6.46v48.37A3.65,3.65,0,0,1,96,104.52a4.43,4.43,0,0,1-1,.08H51.06a3.65,3.65,0,0,1-3.87-3.85V68.66c0-1.11.65-1.72,1.54-1.47a1.15,1.15,0,0,1,.88,1,5,5,0,0,1,0,.67v31.43c0,1.47.37,1.84,1.83,1.84H94.59c1.46,0,1.83-.37,1.83-1.83V46.49c0-1.46-.37-1.83-1.84-1.83H70.82c-1,0-1.68-.6-1.42-1.47.11-.37.54-.65.82-1Z"/><path class="cls-2" d="M58.4,42.22a24.8,24.8,0,0,1,3.09,1,9.78,9.78,0,0,1,5.62,10A10,10,0,1,1,55.7,42.34a1,1,0,0,0,.26-.12Zm6.33,10a7.55,7.55,0,1,0-7.59,7.53A7.61,7.61,0,0,0,64.73,52.24Z"/><path class="cls-2" d="M62.41,72.29a12.34,12.34,0,0,1,6.23-5.37,15,15,0,0,1-1.34-2.85c-.68-2.85-.22-5.58,2.11-7.44a6,6,0,0,1,9.22,2.79,7.52,7.52,0,0,1-.55,6.28c-.22.38-.52.72-.83,1.15a12.42,12.42,0,0,1,6.29,5.28,13.21,13.21,0,0,0,2.88-5.75A13.74,13.74,0,0,0,75.76,49.83,14,14,0,0,0,71,49.68a1.18,1.18,0,0,1-1.29-.6,1,1,0,0,1,.06-1.25,1.73,1.73,0,0,1,1-.56A15.88,15.88,0,0,1,82.25,50a15.58,15.58,0,0,1,6.63,10,15.73,15.73,0,0,1-3.73,14,15.24,15.24,0,0,1-8.89,5.15,15.84,15.84,0,0,1-15.15-4.9,15.4,15.4,0,0,1-4-7.87,2.33,2.33,0,0,1,.15-1.28,1,1,0,0,1,1.2-.5,1.28,1.28,0,0,1,1,1.09,24.29,24.29,0,0,0,1,3.17C61,70,61.7,71.06,62.41,72.29Zm19.27,1.65a9.52,9.52,0,0,0-8.88-5.37A9.37,9.37,0,0,0,64.38,74,13.66,13.66,0,0,0,81.68,73.94ZM76.55,62a5.8,5.8,0,0,0,0-.59A3.56,3.56,0,0,0,73.78,58a3.48,3.48,0,0,0-3.93,2,5.46,5.46,0,0,0-.28,3.22A3.49,3.49,0,0,0,75,65.47,3.73,3.73,0,0,0,76.55,62Z"/><path class="cls-2" d="M75.58,83.9h8.33a3,3,0,0,1,.73.06,1.22,1.22,0,0,1-.15,2.35,2.17,2.17,0,0,1-.36,0h-17a1.21,1.21,0,0,1-1.18-1.78,1.3,1.3,0,0,1,1.27-.66Z"/><path class="cls-2" d="M75.65,93.15H67.13a1.22,1.22,0,1,1,0-2.43h17c.8,0,1.29.35,1.39,1a1.19,1.19,0,0,1-1.28,1.45H75.65Z"/><path class="cls-2" d="M48.42,65a1.21,1.21,0,1,1,1.2-1.21A1.23,1.23,0,0,1,48.42,65Z"/><path class="cls-2" d="M63,85.16a1.25,1.25,0,0,1-1.31,1.16A1.2,1.2,0,0,1,60.57,85a1.21,1.21,0,0,1,1.26-1.14A1.26,1.26,0,0,1,63,85.16Z"/><path class="cls-2" d="M63,91.93a1.25,1.25,0,0,1-1.2,1.22,1.22,1.22,0,1,1,0-2.43A1.26,1.26,0,0,1,63,91.93Z"/><path class="cls-2" d="M55.8,53.23c1.3-1.3,2.5-2.53,3.74-3.73a2.31,2.31,0,0,1,1-.56,1,1,0,0,1,1.18.55,1.12,1.12,0,0,1,0,1.25,3.05,3.05,0,0,1-.43.51L57,55.52c-.85.85-1.44.86-2.28,0-.6-.6-1.21-1.2-1.81-1.81a1.26,1.26,0,0,1-.12-1.88,1.23,1.23,0,0,1,1.84.13c.21.2.4.4.6.61Z"/></svg>