<svg id="Layer_1" data-name="Layer 1" xmlns="http://www.w3.org/2000/svg" viewBox="0 0 150 150"><defs><style>.cls-1{fill:#291d52;stroke:#75cbc3;stroke-miterlimit:10;stroke-width:2.47px;}.cls-2{fill:#75cbc3;}</style></defs><path class="cls-1" d="M9.39,19.29H98a42.58,42.58,0,0,1,42.58,42.58v27.2A42.58,42.58,0,0,1,98,131.65H52A42.58,42.58,0,0,1,9.39,89.07V19.29a0,0,0,0,1,0,0Z"/><path class="cls-2" d="M65.82,105.48l-1.38-.35a11.83,11.83,0,0,1-8.85-9.83c0-.16-.07-.32-.13-.57H53c-.86,0-1.73,0-2.59,0a.6.6,0,0,0-.67.47,4.23,4.23,0,0,1-3.94,2.74A4.3,4.3,0,1,1,49.76,92a.64.64,0,0,0,.72.5c1.5,0,3,0,4.48,0,.44,0,.58-.17.64-.56a11.84,11.84,0,0,1,22-4.21c1.26-.94,2.48-1.89,3.74-2.78a.88.88,0,0,0,.39-1.14,11.79,11.79,0,0,1,8.06-14.5l.36-.14-4.78-6.37a11.66,11.66,0,0,1-11,.74,11.87,11.87,0,0,1-6.94-8.65l-5,4.23c.45.72.9,1.4,1.29,2.11a11.84,11.84,0,0,1,1.32,4.43,1.26,1.26,0,0,0,.42.77c1.67,1.34,3.38,2.64,5.06,4a.77.77,0,0,0,1,.09,4.29,4.29,0,1,1-2,2.57.75.75,0,0,0-.32-.94C67.88,71.08,66.47,70,65,68.84a12,12,0,0,1-12.45,9.72,11.87,11.87,0,0,1-11-9.94A11.46,11.46,0,0,1,44,59.49a11.81,11.81,0,0,1,8.26-4.59c0-1.79,0-3.51,0-5.23,0-.16-.22-.37-.39-.45A4.16,4.16,0,0,1,49,45.43a4.06,4.06,0,0,1,2.26-4,4.29,4.29,0,1,1,3.61,7.78.65.65,0,0,0-.51.72c0,1.49,0,3,0,4.48,0,.33,0,.57.44.62a11.68,11.68,0,0,1,6,2.57l.14.07c2-1.74,4.09-3.49,6.12-5.25a.82.82,0,0,0,.24-.53A11.86,11.86,0,0,1,90.8,50.46a1,1,0,0,0,.43.6c2.44,1.21,4.9,2.39,7.37,3.56a.76.76,0,0,0,.61,0A4.32,4.32,0,0,1,106,57.14s.08.09.11.14v1.64c-.07.17-.16.33-.22.51a4.3,4.3,0,0,1-7.85.74,4.56,4.56,0,0,1-.31-3.57L91,53.37a12.08,12.08,0,0,1-3.88,8.15c1.56,2.08,3.13,4.08,4.59,6.16a2.26,2.26,0,0,0,2.39,1.23,2.8,2.8,0,0,1,.75.09,11.82,11.82,0,0,1-.53,23.48c-4.68.45-8.3-1.45-11-5.21-.16-.21-.29-.44-.45-.69-1.39,1-2.72,2-4,3a.73.73,0,0,0-.14.56c.16,1.12.37,2.24.49,3.36a.74.74,0,0,0,.47.71q3.52,1.68,7,3.39a.79.79,0,0,0,.91-.06,4.29,4.29,0,0,1,5.66,6.34,5.34,5.34,0,0,1-2.54,1.55H89.16l-.7-.26a4.3,4.3,0,0,1-2.59-2.58,4.58,4.58,0,0,1,0-3l-7-3.36c-.06.19-.11.31-.14.43A11.77,11.77,0,0,1,71,104.91c-.72.25-1.49.38-2.23.57Zm7.93-4.73a9.47,9.47,0,0,0,2.73-10.16A9.71,9.71,0,0,0,66.3,84a9.83,9.83,0,0,0-8.48,7.73c-.8,3.72,1.06,7.62,3,8.89l.06-.63a3.19,3.19,0,0,1,3.25-3.1c2.23-.06,4.46,0,6.68,0A2.93,2.93,0,0,1,72.92,98,3.42,3.42,0,0,1,73.75,100.75ZM99.62,87.82c2.8-2.21,3.94-6.77,2.65-10.31a9.67,9.67,0,0,0-18.4.42,9.49,9.49,0,0,0,2.75,9.82c0-.16,0-.3,0-.44a3.35,3.35,0,0,1,3.48-3.38c2,0,4,0,6,0a3.4,3.4,0,0,1,2.4.93A3.6,3.6,0,0,1,99.62,87.82Zm-39.81-14a9.53,9.53,0,0,0,2.64-10.23A9.67,9.67,0,0,0,44,64.06a9.48,9.48,0,0,0,2.79,9.7c0-.19,0-.35.05-.51A3.19,3.19,0,0,1,50,70c2.2-.12,4.41-.1,6.62,0a3.15,3.15,0,0,1,3.07,2.52A10.09,10.09,0,0,1,59.81,73.81Zm12.82-14c0-.23,0-.37,0-.51A3.2,3.2,0,0,1,75.79,56a55.14,55.14,0,0,1,6.68,0c2,.12,3.09,1.43,3.15,3.46a2,2,0,0,0,.07.35,9.65,9.65,0,1,0-13.06,0ZM67.33,99c-1,0-2,0-3,0A1.15,1.15,0,0,0,63,100.32c0,.48,0,1,0,1.45a.65.65,0,0,0,.5.74,9.77,9.77,0,0,0,7,.22c1.13-.38,1.13-.39,1.13-1.54v-.76c0-1-.44-1.39-1.39-1.4Zm11.82-40.9c-1,0-1.94,0-2.9,0s-1.37.38-1.38,1.37c0,.46,0,.92,0,1.38a.62.62,0,0,0,.45.7,9.8,9.8,0,0,0,6.81.32c1.34-.41,1.34-.43,1.34-1.84v-.57c0-.94-.42-1.34-1.35-1.35S80.13,58.13,79.15,58.13Zm-25.82,14h0c-1,0-2.1,0-3.15,0A1.08,1.08,0,0,0,49,73.35c0,.52,0,1.05,0,1.57a.59.59,0,0,0,.45.65,9.76,9.76,0,0,0,7.15.21c1-.34,1-.36,1-1.45v-.69c0-1.12-.39-1.5-1.52-1.51Zm39.81,14h0c-1,0-2.1,0-3.15,0a1.06,1.06,0,0,0-1.12,1.16c0,.52,0,1,0,1.57a.64.64,0,0,0,.45.71,9.78,9.78,0,0,0,6.8.31c1.33-.43,1.33-.43,1.33-1.78,0-.21,0-.42,0-.63,0-1-.4-1.33-1.34-1.35S94.12,86.12,93.14,86.12ZM89.93,99a2.16,2.16,0,0,0-2.16,2.09,2.15,2.15,0,1,0,4.29,0A2.16,2.16,0,0,0,89.93,99ZM101.78,56a2.12,2.12,0,1,0,0,4.23,2.12,2.12,0,1,0,0-4.23ZM53.32,47.32a2.14,2.14,0,0,0,0-4.28,2.14,2.14,0,1,0,0,4.28ZM47.9,93.66a2.17,2.17,0,0,0-2.09-2.18,2.22,2.22,0,0,0-2.19,2.16,2.19,2.19,0,0,0,2.15,2.13A2.13,2.13,0,0,0,47.9,93.66ZM73.79,72.14a2.12,2.12,0,1,0,2.12,2.12A2.12,2.12,0,0,0,73.79,72.14Z"/><path class="cls-2" d="M63,90.4a4.31,4.31,0,1,1,4.33,4.33A4.36,4.36,0,0,1,63,90.4Zm4.29,2.12a2.12,2.12,0,1,0,.06-4.23,2.12,2.12,0,1,0-.06,4.23Z"/><path class="cls-2" d="M93.17,81.78a4.3,4.3,0,1,1,4.29-4.29A4.34,4.34,0,0,1,93.17,81.78ZM91,77.51a2.1,2.1,0,0,0,2.12,2.11A2.14,2.14,0,1,0,91,77.51Z"/><path class="cls-2" d="M53.3,67.79a4.31,4.31,0,1,1,4.31-4.26A4.3,4.3,0,0,1,53.3,67.79Zm0-2.17a2.17,2.17,0,0,0,2.15-2.12,2.2,2.2,0,0,0-2.12-2.16,2.17,2.17,0,0,0-2.16,2.17A2.13,2.13,0,0,0,53.31,65.62Z"/><path class="cls-2" d="M79.35,53.78a4.3,4.3,0,0,1-.47-8.59,4.3,4.3,0,1,1,.47,8.59ZM77,49.48a2.09,2.09,0,0,0,2.09,2.14A2.14,2.14,0,1,0,77,49.48Z"/></svg>