<svg id="Layer_1" data-name="Layer 1" xmlns="http://www.w3.org/2000/svg" viewBox="0 0 150 150"><defs><style>.cls-1{fill:#291d52;stroke:#75cbc3;stroke-miterlimit:10;stroke-width:2.47px;}.cls-2{fill:#75cbc3;}</style></defs><path class="cls-1" d="M9.39,19.29H98a42.58,42.58,0,0,1,42.58,42.58v27.2A42.58,42.58,0,0,1,98,131.65H52A42.58,42.58,0,0,1,9.39,89.07V19.29a0,0,0,0,1,0,0Z"/><path class="cls-2" d="M80.73,105.11H69.5c0-.24,0-.49,0-.74,0-4.21,0-8.43,0-12.65,0-.39,0-.79,0-1.18a4.56,4.56,0,0,0-4.24-4c-2.45,0-4.91,0-7.36,0a4.51,4.51,0,0,0-4.26,4.26c0,4.78,0,9.56,0,14.33H44.16a3.45,3.45,0,0,1-2-2V45.6a1.4,1.4,0,0,0,.09-.17A4.67,4.67,0,0,1,48,41.82c1.16.2,2.34.36,3.5.53l11.21,1.7,9.47,1.43c1.65.25,3.3.45,4.92.78a4.74,4.74,0,0,1,3.67,5q0,26.61,0,53.21C80.78,104.66,80.75,104.89,80.73,105.11ZM68.15,52.57H66.09a2,2,0,0,0-2,1.88,1.93,1.93,0,0,0,1.79,2c1.47.06,3,.06,4.42,0a1.93,1.93,0,0,0,1.77-2,2,2,0,0,0-2-1.87Zm0,8c-.68,0-1.37,0-2.06,0a2,2,0,0,0-2,1.87,1.94,1.94,0,0,0,1.79,2c1.47.06,3,.06,4.42,0a1.92,1.92,0,0,0,1.77-2,2,2,0,0,0-2-1.87C69.48,60.54,68.82,60.55,68.15,60.55Zm0,8c-.68,0-1.37,0-2.05,0a2,2,0,0,0-2,1.88,1.93,1.93,0,0,0,1.78,2c1.48.07,3,.07,4.43,0a1.92,1.92,0,0,0,1.77-2,2,2,0,0,0-2-1.87C69.48,68.53,68.82,68.54,68.15,68.54Zm0,8c-.68,0-1.37,0-2.06,0a2,2,0,0,0-1.92,1.91,1.92,1.92,0,0,0,1.76,2c1.5.07,3,.07,4.49,0a1.93,1.93,0,0,0,1.74-2,2,2,0,0,0-2-1.89C69.48,76.51,68.8,76.53,68.11,76.53Zm-13.25-24c-.71,0-1.41,0-2.12,0a1.94,1.94,0,0,0-1.9,1.86,1.89,1.89,0,0,0,1.75,2c1.47.07,2.95.07,4.42,0a1.88,1.88,0,0,0,1.77-2.08,2,2,0,0,0-1.93-1.83Zm0,8c-.69,0-1.37,0-2.06,0a1.93,1.93,0,0,0-1.91,1.9,1.89,1.89,0,0,0,1.73,2c1.49.07,3,.07,4.49,0a1.88,1.88,0,0,0,1.72-2.06,1.94,1.94,0,0,0-1.91-1.84C56.18,60.54,55.5,60.55,54.81,60.55Zm0,8c-.69,0-1.38,0-2.06,0a1.93,1.93,0,0,0-1.9,1.86,1.89,1.89,0,0,0,1.75,2c1.47.07,2.95.07,4.42,0a1.88,1.88,0,0,0,1.77-2.08,2,2,0,0,0-1.93-1.83C56.17,68.53,55.48,68.54,54.8,68.54Zm0,8c-.66,0-1.33,0-2,0a1.93,1.93,0,0,0-2,1.86,1.89,1.89,0,0,0,1.81,2c1.45.06,2.91.07,4.36,0a1.89,1.89,0,0,0,1.77-2.09,2,2,0,0,0-1.93-1.82C56.17,76.51,55.48,76.53,54.79,76.52Z"/><path class="cls-2" d="M83.48,105.11c0-.22,0-.45,0-.67q0-18.78,0-37.54v-.78l2.92.58q8,1.68,15.94,3.36a4.58,4.58,0,0,1,3.78,4.73v25.37a4.62,4.62,0,0,1-3.7,4.86.83.83,0,0,0-.16.09Zm10.59-24h1.81a2,2,0,1,0,0-4c-1.23,0-2.46,0-3.68,0a2,2,0,0,0-2.14,2,2.05,2.05,0,0,0,2.17,2C92.86,81.17,93.46,81.16,94.07,81.16Zm0,8c.65,0,1.29,0,1.94,0a2,2,0,1,0,0-4q-1.94,0-3.87,0a2,2,0,1,0,0,4C92.8,89.16,93.45,89.14,94.09,89.14Zm.06,4c-.67,0-1.33,0-2,0a2,2,0,1,0,0,4c1.29,0,2.58,0,3.87,0a2,2,0,1,0,0-4C95.4,93.12,94.77,93.13,94.15,93.13Z"/></svg>